<?xml version="1.0" encoding="UTF-8"?>
<svg width="17px" height="17px" viewBox="0 0 17 17" version="1.1" xmlns="http://www.w3.org/2000/svg" xmlns:xlink="http://www.w3.org/1999/xlink">
    <!-- Generator: Sketch 61.2 (89653) - https://sketch.com -->
    <title>椭圆形备份</title>
    <desc>Created with Sketch.</desc>
    <g id="页面-1" stroke="none" stroke-width="1" fill="none" fill-rule="evenodd">
        <g id="商品前台分类" transform="translate(-50.000000, -290.000000)">
            <g id="分组-4备份-3" transform="translate(0.000000, 207.000000)">
                <g id="添加" transform="translate(50.000000, 83.000000)">
                    <g id="jia" transform="translate(0.515152, 0.515152)">
                        <circle id="椭圆形备份" fill="#FFCA7D" cx="7.98484848" cy="7.98484848" r="7.72727273"></circle>
                        <path d="M7.36454403,7.2983232 L4.55029897,7.2983232 C4.17106568,7.2983232 3.86363636,7.60569104 3.86363636,7.98484848 C3.86363636,8.36400593 4.17106568,8.67137377 4.55029897,8.67137377 L7.36454403,8.67137377 L7.36454403,11.4191232 C7.36454402,11.6645423 7.49549973,11.8913189 7.70808141,12.0140284 C7.92066308,12.136738 8.18257451,12.136738 8.39515619,12.0140284 C8.60773786,11.8913189 8.73869357,11.6645423 8.73869357,11.4191232 L8.73869357,8.67137377 L11.419398,8.67137377 C11.7986313,8.67137377 12.1060606,8.36400593 12.1060606,7.98484848 C12.1060606,7.60569104 11.7986313,7.2983232 11.419398,7.2983232 L8.73869357,7.2983232 L8.73869357,4.55057375 C8.73869357,4.30515466 8.60773786,4.07837807 8.39515619,3.95566852 C8.18257451,3.83295898 7.92066308,3.83295898 7.70808141,3.95566852 C7.49549973,4.07837807 7.36454402,4.30515466 7.36454403,4.55057375 L7.36454403,7.2983232 Z" id="路径" fill="#FFFFFF" fill-rule="nonzero"></path>
                    </g>
                </g>
            </g>
        </g>
    </g>
</svg>