<?xml version="1.0" encoding="UTF-8"?>
<svg width="17px" height="17px" viewBox="0 0 17 17" version="1.1" xmlns="http://www.w3.org/2000/svg" xmlns:xlink="http://www.w3.org/1999/xlink">
    <!-- Generator: Sketch 61.2 (89653) - https://sketch.com -->
    <title>形状</title>
    <desc>Created with Sketch.</desc>
    <g id="页面-1" stroke="none" stroke-width="1" fill="none" fill-rule="evenodd">
        <g id="商品前台分类" transform="translate(-332.000000, -175.000000)" fill="#DFDFDF" fill-rule="nonzero">
            <g id="分组-4备份-2" transform="translate(0.000000, 90.000000)">
                <g id="shanchu-1" transform="translate(332.000000, 85.000000)">
                    <path d="M8.20102634,0 C6.43672792,0 5.00479989,1.37579515 4.94386678,3.10303975 L0.830882025,3.10303975 C0.373901309,3.10303975 0,3.46810631 0,3.92034312 C0,4.36986343 0.371139618,4.73766379 0.830899615,4.73766379 L1.74765792,4.73766379 L1.74765792,13.8806093 C1.74765792,15.5969533 2.93031254,17 4.39272471,17 L11.843134,17 C13.3027845,17 14.4882008,15.6051374 14.4882008,13.8806093 L14.4882008,4.74311409 L15.3191004,4.74311409 C15.7760987,4.74311409 16.15,4.37803024 16.15,3.92579342 C16.15,3.47627311 15.7788604,3.10849006 15.3191004,3.10849006 L11.4526273,3.10849006 C11.3999969,1.37581246 9.96530718,0 8.20102634,0 L8.20102634,0 Z M6.5004403,3.10303975 C6.56137341,2.21763354 7.29534998,1.53110286 8.20378803,1.53110286 C9.11222608,1.53110286 9.84620265,2.22035004 9.8988331,3.10303975 L6.5004403,3.10303975 Z M4.38994543,15.4716309 C3.87201402,15.4716309 3.30145216,14.8177848 3.30145216,13.8806093 L3.30145216,4.74311409 L12.9288656,4.74311409 L12.9288656,13.8887761 C12.9288656,14.8232351 12.3583037,15.479815 11.8403723,15.479815 L4.38994543,15.479815 L4.38994543,15.4716309 Z" id="形状"></path>
                    <path d="M5.7311053,12.75 C6.07692741,12.75 6.36219457,12.4076479 6.36219457,11.9778311 L6.36219457,7.57218478 C6.36219457,7.14236794 6.07946055,6.8 5.7311053,6.8 C5.38525113,6.8 5.1,7.14236794 5.1,7.57218478 L5.1,11.9778311 C5.1,12.4051403 5.37768377,12.75 5.7311053,12.75 Z M8.01567956,12.75 C8.3615177,12.75 8.64676883,12.4076479 8.64676883,11.9778311 L8.64676883,7.57218478 C8.64676883,7.14236794 8.36403481,6.8 8.01567956,6.8 C7.66984143,6.8 7.38457426,7.14236794 7.38457426,7.57218478 L7.38457426,11.9778311 C7.38457426,12.4051403 7.66984143,12.75 8.01567956,12.75 L8.01567956,12.75 Z M10.4188947,12.75 C10.7647328,12.75 11.05,12.4076479 11.05,11.9778311 L11.05,7.57218478 C11.05,7.14236794 10.767266,6.8 10.4188947,6.8 C10.0730566,6.8 9.78780543,7.14236794 9.78780543,7.57218478 L9.78780543,11.9778311 C9.78780543,12.4051403 10.0629561,12.75 10.4188947,12.75 Z" id="形状"></path>
                </g>
            </g>
        </g>
    </g>
</svg>