<?xml version="1.0" encoding="UTF-8"?>
<svg width="17px" height="17px" viewBox="0 0 17 17" version="1.1" xmlns="http://www.w3.org/2000/svg" xmlns:xlink="http://www.w3.org/1999/xlink">
    <!-- Generator: Sketch 61.2 (89653) - https://sketch.com -->
    <title>形状</title>
    <desc>Created with Sketch.</desc>
    <g id="页面-1" stroke="none" stroke-width="1" fill="none" fill-rule="evenodd">
        <g id="商品前台分类" transform="translate(-285.000000, -292.000000)" fill="#DFDFDF" fill-rule="nonzero">
            <g id="分组-4备份-3" transform="translate(0.000000, 207.000000)">
                <g id="编辑" transform="translate(285.000000, 85.000000)">
                    <path d="M12.6351095,0.673353206 C12.182501,0.224451081 11.6167405,-2.03383509e-12 11.0509798,-2.03383509e-12 C10.4852192,-2.03383509e-12 9.91945864,0.224451044 9.46685015,0.673353206 L0.759997687,9.29771128 C0.307389199,9.74661341 0.0810849732,10.1955155 0.0810849356,10.7566432 L1.62714286e-12,15.7655192 L1.62714286e-12,15.8777447 C1.62714286e-12,16.4388724 0.56576062,17 1.1315212,17 L6.22002919,16.8850946 C6.78578981,16.8850946 7.29156796,16.6102017 7.69100675,16.2117414 L16.3062355,7.61761741 C17.2114525,6.8320387 17.2114525,5.37310682 16.4193876,4.47530257 L12.6351095,0.673353206 Z M6.39254762,15.0377803 L1.67760605,15.3265036 L1.95662244,10.6335027 L8.49383491,4.11230447 L12.9193442,8.52697251 L6.39254762,15.0377803 Z M9.75826613,2.85097074 L11.0226973,1.58963702 L15.4482066,6.00430506 L14.1837754,7.26563878 L9.75826613,2.85097074 Z" id="形状"></path>
                    <path d="M8.67159813,8.31102436 C8.33182465,7.97125088 7.65227768,7.97125088 7.3125042,8.31102436 L4.70757414,10.9159544 C4.36780066,11.2557279 4.36780066,11.9352749 4.70757414,12.2750484 C5.04734762,12.6148218 5.72689459,12.6148218 6.06666807,12.2750484 L8.67159813,9.67011829 C9.01137161,9.21708697 9.01137161,8.65079785 8.67159813,8.31102436 L8.67159813,8.31102436 Z" id="路径"></path>
                </g>
            </g>
        </g>
    </g>
</svg>