<?xml version="1.0" encoding="UTF-8"?>
<svg width="16px" height="16px" viewBox="0 0 16 16" version="1.1" xmlns="http://www.w3.org/2000/svg" xmlns:xlink="http://www.w3.org/1999/xlink">
    <!-- Generator: Sketch 61.2 (89653) - https://sketch.com -->
    <title>编组 2</title>
    <desc>Created with Sketch.</desc>
    <g id="页面-1" stroke="none" stroke-width="1" fill="none" fill-rule="evenodd">
        <g id="商品前台分类" transform="translate(-149.000000, -174.000000)" fill="#FFCA7D" fill-rule="nonzero">
            <g id="分组-4备份-2" transform="translate(0.000000, 90.000000)">
                <g id="编组-2" transform="translate(148.288813, 83.445967)">
                    <path d="M13.3747436,1 L11.6252564,1 C10.1752124,1 9,2.17521242 9,3.62525637 L9,5.37474363 C9,6.82478758 10.1752124,8 11.6252564,8 L13.3747436,8 C14.8247876,8 16,6.82478758 16,5.37474363 L16,3.62525637 C16,2.17521242 14.8247876,1 13.3747436,1 Z M14.2505127,5.37474363 C14.2505127,5.85877527 13.8587753,6.25051275 13.3747436,6.25051275 L11.6252564,6.25051275 C11.1412247,6.25051275 10.7494873,5.85877527 10.7494873,5.37474363 L10.7494873,3.62525637 C10.7494873,3.14122473 11.1412247,2.74948725 11.6252564,2.74948725 L13.3747436,2.74948725 C13.8587753,2.74948725 14.2505127,3.14122473 14.2505127,3.62525637 L14.2505127,5.37474363 Z" id="形状"></path>
                    <path d="M13.421516,8.97981706 L11.7031981,8.97981706 C10.2789885,8.97981706 9.12471405,10.1584179 9.12471405,11.6126428 L9.12471405,13.3671743 C9.12471405,14.8213991 10.2789885,16 11.7031981,16 L13.421516,16 C14.8457255,16 16,14.8213991 16,13.3671743 L16,11.6126428 C16,10.1584179 14.8457255,8.97981706 13.421516,8.97981706 Z M14.2816821,13.3671743 C14.2816821,13.8526015 13.896924,14.2454685 13.421516,14.2454685 L11.7031981,14.2454685 C11.2277901,14.2454685 10.8430319,13.8526015 10.8430319,13.3671743 L10.8430319,11.6126428 C10.8430319,11.1272155 11.2277901,10.7343486 11.7031981,10.7343486 L13.421516,10.7343486 C13.896924,10.7343486 14.2816821,11.1272155 14.2816821,11.6126428 L14.2816821,13.3671743 Z M1,13.3557409 C1,14.8099658 2.15427449,15.9885666 3.57848404,15.9885666 L5.29680191,15.9885666 C6.72101146,15.9885666 7.87528595,14.8099658 7.87528595,13.3557409 L7.87528595,11.6012094 C7.87528595,10.1469846 6.72101146,8.96838371 5.29680191,8.96838371 L3.57848404,8.96838371 C2.15427449,8.96838371 1,10.1469846 1,11.6012094 L1,13.3557409 Z M2.71831788,11.6012094 C2.71831788,11.1157822 3.10307604,10.7229152 3.57848404,10.7229152 L5.29680191,10.7229152 C5.77220991,10.7229152 6.15696807,11.1157822 6.15696807,11.6012094 L6.15696807,13.3557409 C6.15696807,13.8411682 5.77220991,14.2340351 5.29680191,14.2340351 L3.57848404,14.2340351 C3.10307604,14.2340351 2.71831788,13.8411682 2.71831788,13.3557409 L2.71831788,11.6012094 Z M3.58915535,8.02018294 L5.30747323,8.02018294 C6.73168277,8.02018294 7.88595726,6.84158205 7.88595726,5.38735723 L7.88595726,3.63282571 C7.88595726,2.17860089 6.73168277,1 5.30747323,1 L3.58915535,1 C2.16494581,1 1.01067131,2.17860089 1.01067131,3.63282571 L1.01067131,5.38735723 C1.01067131,6.84158205 2.16494581,8.02018294 3.58915535,8.02018294 Z M2.72898919,3.63282571 C2.72898919,3.14739847 3.11374736,2.75453151 3.58915535,2.75453151 L5.30747323,2.75453151 C5.78288122,2.75453151 6.16763939,3.14739847 6.16763939,3.63282571 L6.16763939,5.38735723 C6.16763939,5.87278447 5.78288122,6.26565143 5.30747323,6.26565143 L3.58915535,6.26565143 C3.11374736,6.26565143 2.72898919,5.87278447 2.72898919,5.38735723 L2.72898919,3.63282571 Z" id="形状"></path>
                </g>
            </g>
        </g>
    </g>
</svg>