<?xml version="1.0" encoding="UTF-8"?>
<svg width="30px" height="30px" viewBox="0 0 30 30" version="1.1" xmlns="http://www.w3.org/2000/svg" xmlns:xlink="http://www.w3.org/1999/xlink">
    <!-- Generator: Sketch 61.2 (89653) - https://sketch.com -->
    <title>椭圆形</title>
    <desc>Created with Sketch.</desc>
    <g id="页面-1" stroke="none" stroke-width="1" fill="none" fill-rule="evenodd">
        <g id="订单详情" transform="translate(-29.000000, -105.000000)">
            <g id="编组" transform="translate(10.000000, 90.000000)">
                <g id="编组-4" transform="translate(19.000000, 15.000000)">
                    <circle id="椭圆形" fill="#F0F0F0" cx="15" cy="15" r="15"></circle>
                    <g id="编组-2" transform="translate(15.061394, 15.348182) rotate(35.000000) translate(-15.061394, -15.348182) translate(11.061394, 5.348182)">
                        <path d="M7.5,15.75 L4.05913155,19.2332181 C3.91360309,19.3805772 3.67617066,19.3820294 3.5288311,19.2364812 L0,15.75 L7.5,15.75 Z" id="路径" fill="#FFF7EB"></path>
                        <polygon id="路径备份" fill="#FFC777" points="2.25 3.75 2.25 15.75 0 15.75 0 3.75"></polygon>
                        <polygon id="路径备份-3" fill="#FFC777" points="7.5 3.75 7.5 15.75 5.25 15.75 5.25 3.75"></polygon>
                        <polygon id="路径备份-2" fill="#F6B252" points="5.25 3.75 5.25 15.75 2.25 15.75 2.25 3.75"></polygon>
                        <rect id="矩形" fill="#FFFFFF" x="0" y="2.25" width="7.5" height="1.5"></rect>
                        <path d="M0,2.25 C0,1.00735931 1.00735931,0 2.25,0 L5.25,0 C6.49264069,0 7.5,1.00735931 7.5,2.25 L0,2.25 Z" id="路径" fill="#FFC797"></path>
                    </g>
                </g>
            </g>
        </g>
    </g>
</svg>