<?xml version="1.0" encoding="UTF-8"?>
<svg width="10px" height="13px" viewBox="0 0 10 13" version="1.1" xmlns="http://www.w3.org/2000/svg" xmlns:xlink="http://www.w3.org/1999/xlink">
    <!-- Generator: Sketch 61.2 (89653) - https://sketch.com -->
    <title>返回</title>
    <desc>Created with Sketch.</desc>
    <g id="页面-1" stroke="none" stroke-width="1" fill="none" fill-rule="evenodd">
        <g id="掌柜任务设置" transform="translate(-355.000000, -311.000000)" fill="#DADDE4" fill-rule="nonzero">
            <g id="编组备份-3" transform="translate(0.000000, 277.000000)">
                <g id="icon/导航栏/返回" transform="translate(360.000000, 40.500000) rotate(-180.000000) translate(-360.000000, -40.500000) translate(355.000000, 34.000000)">
                    <g id="返回">
                        <path d="M0.636437469,7.14932127 C0.474005628,7.14932127 0.31009714,7.08597285 0.186058284,6.95927602 C-0.0620194279,6.70588236 -0.0620194279,6.29411765 0.186058284,6.04072397 L5.91399551,0.190045247 C6.16207322,-0.0633484157 6.56519951,-0.0633484157 6.81327722,0.190045247 C7.06135493,0.44343891 7.06135493,0.855203615 6.81327722,1.10859728 L1.08533999,6.95927602 C0.961301136,7.08597285 0.798869296,7.14932127 0.636437469,7.14932127 L0.636437469,7.14932127 Z M6.36289804,13 C6.2004662,13 6.03655771,12.9366516 5.91251885,12.8099548 L0.186058284,6.95927602 C-0.0620194279,6.70588236 -0.0620194279,6.29411765 0.186058284,6.04072397 C0.434135995,5.78733031 0.837262281,5.78733031 1.08533999,6.04072397 L6.81327722,11.8914027 C7.06135493,12.1447964 7.06135493,12.5565611 6.81327722,12.8099548 C6.68923837,12.9366516 6.52680652,13 6.36289804,13 Z" id="形状" transform="translate(3.499668, 6.500000) rotate(-360.000000) translate(-3.499668, -6.500000) "></path>
                    </g>
                </g>
            </g>
        </g>
    </g>
</svg>